<mxfile host="app.diagrams.net" modified="2024-06-03T13:01:46.242Z" agent="Mozilla/5.0 (Windows NT 10.0; Win64; x64) AppleWebKit/537.36 (KHTML, like Gecko) Chrome/125.0.0.0 Safari/537.36" etag="wHRi_fdEvMtMaA_zloMn" version="24.4.13" type="device">
  <diagram name="Página-1" id="wd5DdDGQxlJ1RMCF7p1D">
    <mxGraphModel dx="989" dy="521" grid="1" gridSize="10" guides="1" tooltips="1" connect="1" arrows="1" fold="1" page="1" pageScale="1" pageWidth="827" pageHeight="1169" math="0" shadow="0">
      <root>
        <mxCell id="0" />
        <mxCell id="1" parent="0" />
        <mxCell id="H-XPeI9zY0OVmY43QJ45-96" value="" style="rounded=0;whiteSpace=wrap;html=1;" vertex="1" parent="1">
          <mxGeometry x="8" y="600" width="812" height="560" as="geometry" />
        </mxCell>
        <mxCell id="H-XPeI9zY0OVmY43QJ45-2" value="" style="rounded=0;whiteSpace=wrap;html=1;" vertex="1" parent="1">
          <mxGeometry x="9" y="40" width="810" height="520" as="geometry" />
        </mxCell>
        <mxCell id="H-XPeI9zY0OVmY43QJ45-3" value="" style="rounded=0;whiteSpace=wrap;html=1;" vertex="1" parent="1">
          <mxGeometry x="10" y="40" width="810" height="60" as="geometry" />
        </mxCell>
        <mxCell id="H-XPeI9zY0OVmY43QJ45-10" value="&lt;h1 style=&quot;margin-top: 0px;&quot;&gt;&lt;span style=&quot;font-size: 12px; font-weight: 400;&quot;&gt;Ingresar&lt;/span&gt;&lt;/h1&gt;" style="text;html=1;whiteSpace=wrap;overflow=hidden;rounded=0;" vertex="1" parent="1">
          <mxGeometry x="640" y="50" width="60" height="40" as="geometry" />
        </mxCell>
        <mxCell id="H-XPeI9zY0OVmY43QJ45-12" value="&lt;h1 style=&quot;margin-top: 0px;&quot;&gt;&lt;span style=&quot;font-size: 12px; font-weight: 400;&quot;&gt;crear cuenta&lt;/span&gt;&lt;/h1&gt;" style="text;html=1;whiteSpace=wrap;overflow=hidden;rounded=0;" vertex="1" parent="1">
          <mxGeometry x="710" y="50" width="90" height="40" as="geometry" />
        </mxCell>
        <mxCell id="H-XPeI9zY0OVmY43QJ45-13" value="" style="rounded=1;whiteSpace=wrap;html=1;" vertex="1" parent="1">
          <mxGeometry x="265" y="50" width="300" height="40" as="geometry" />
        </mxCell>
        <mxCell id="H-XPeI9zY0OVmY43QJ45-19" value="" style="rounded=0;whiteSpace=wrap;html=1;" vertex="1" parent="1">
          <mxGeometry x="540" y="120" width="110" height="30" as="geometry" />
        </mxCell>
        <mxCell id="H-XPeI9zY0OVmY43QJ45-22" value="" style="rounded=0;whiteSpace=wrap;html=1;" vertex="1" parent="1">
          <mxGeometry x="430" y="120" width="110" height="30" as="geometry" />
        </mxCell>
        <mxCell id="H-XPeI9zY0OVmY43QJ45-23" value="" style="rounded=0;whiteSpace=wrap;html=1;" vertex="1" parent="1">
          <mxGeometry x="320" y="120" width="110" height="30" as="geometry" />
        </mxCell>
        <mxCell id="H-XPeI9zY0OVmY43QJ45-25" value="" style="rounded=0;whiteSpace=wrap;html=1;" vertex="1" parent="1">
          <mxGeometry x="100" y="120" width="110" height="30" as="geometry" />
        </mxCell>
        <mxCell id="H-XPeI9zY0OVmY43QJ45-27" value="" style="rounded=0;whiteSpace=wrap;html=1;" vertex="1" parent="1">
          <mxGeometry x="210" y="120" width="110" height="30" as="geometry" />
        </mxCell>
        <mxCell id="H-XPeI9zY0OVmY43QJ45-21" value="Hombres" style="text;html=1;align=center;verticalAlign=middle;whiteSpace=wrap;rounded=0;" vertex="1" parent="1">
          <mxGeometry x="235" y="120" width="60" height="30" as="geometry" />
        </mxCell>
        <mxCell id="H-XPeI9zY0OVmY43QJ45-29" value="zapatillas" style="text;html=1;align=center;verticalAlign=middle;whiteSpace=wrap;rounded=0;" vertex="1" parent="1">
          <mxGeometry x="565" y="120" width="60" height="30" as="geometry" />
        </mxCell>
        <mxCell id="H-XPeI9zY0OVmY43QJ45-30" value="niños" style="text;html=1;align=center;verticalAlign=middle;whiteSpace=wrap;rounded=0;" vertex="1" parent="1">
          <mxGeometry x="455" y="120" width="60" height="30" as="geometry" />
        </mxCell>
        <mxCell id="H-XPeI9zY0OVmY43QJ45-31" value="mujer" style="text;html=1;align=center;verticalAlign=middle;whiteSpace=wrap;rounded=0;" vertex="1" parent="1">
          <mxGeometry x="345" y="120" width="60" height="30" as="geometry" />
        </mxCell>
        <mxCell id="H-XPeI9zY0OVmY43QJ45-32" value="categoria" style="text;html=1;align=center;verticalAlign=middle;whiteSpace=wrap;rounded=0;" vertex="1" parent="1">
          <mxGeometry x="125" y="120" width="60" height="30" as="geometry" />
        </mxCell>
        <mxCell id="H-XPeI9zY0OVmY43QJ45-34" value="busqueda" style="text;html=1;align=center;verticalAlign=middle;whiteSpace=wrap;rounded=0;" vertex="1" parent="1">
          <mxGeometry x="385" y="55" width="60" height="30" as="geometry" />
        </mxCell>
        <mxCell id="H-XPeI9zY0OVmY43QJ45-35" value="" style="rounded=0;whiteSpace=wrap;html=1;" vertex="1" parent="1">
          <mxGeometry x="30" y="180" width="770" height="160" as="geometry" />
        </mxCell>
        <mxCell id="H-XPeI9zY0OVmY43QJ45-36" value="imagenes aleatorias" style="text;html=1;align=center;verticalAlign=middle;whiteSpace=wrap;rounded=0;" vertex="1" parent="1">
          <mxGeometry x="384" y="240" width="60" height="30" as="geometry" />
        </mxCell>
        <mxCell id="H-XPeI9zY0OVmY43QJ45-37" value="Categoria 1" style="text;html=1;align=center;verticalAlign=middle;whiteSpace=wrap;rounded=0;" vertex="1" parent="1">
          <mxGeometry x="30" y="360" width="70" height="30" as="geometry" />
        </mxCell>
        <mxCell id="H-XPeI9zY0OVmY43QJ45-38" value="" style="whiteSpace=wrap;html=1;aspect=fixed;" vertex="1" parent="1">
          <mxGeometry x="30" y="390" width="130" height="130" as="geometry" />
        </mxCell>
        <mxCell id="H-XPeI9zY0OVmY43QJ45-45" value="" style="rounded=0;whiteSpace=wrap;html=1;" vertex="1" parent="1">
          <mxGeometry x="45" y="400" width="100" height="60" as="geometry" />
        </mxCell>
        <mxCell id="H-XPeI9zY0OVmY43QJ45-50" value="&lt;font style=&quot;font-size: 8px;&quot;&gt;breve descripcion&lt;/font&gt;" style="text;html=1;align=center;verticalAlign=middle;whiteSpace=wrap;rounded=0;" vertex="1" parent="1">
          <mxGeometry x="30" y="470" width="80" height="30" as="geometry" />
        </mxCell>
        <mxCell id="H-XPeI9zY0OVmY43QJ45-51" value="&lt;font style=&quot;font-size: 10px;&quot;&gt;nombre producto&lt;/font&gt;" style="text;html=1;align=center;verticalAlign=middle;whiteSpace=wrap;rounded=0;" vertex="1" parent="1">
          <mxGeometry x="30" y="460" width="100" height="30" as="geometry" />
        </mxCell>
        <mxCell id="H-XPeI9zY0OVmY43QJ45-52" value="&lt;font style=&quot;font-size: 9px;&quot;&gt;precio&lt;/font&gt;" style="text;html=1;align=center;verticalAlign=middle;whiteSpace=wrap;rounded=0;" vertex="1" parent="1">
          <mxGeometry x="120" y="500" width="40" height="20" as="geometry" />
        </mxCell>
        <mxCell id="H-XPeI9zY0OVmY43QJ45-57" value="" style="whiteSpace=wrap;html=1;aspect=fixed;" vertex="1" parent="1">
          <mxGeometry x="190" y="390" width="130" height="130" as="geometry" />
        </mxCell>
        <mxCell id="H-XPeI9zY0OVmY43QJ45-58" value="" style="rounded=0;whiteSpace=wrap;html=1;" vertex="1" parent="1">
          <mxGeometry x="205" y="400" width="100" height="60" as="geometry" />
        </mxCell>
        <mxCell id="H-XPeI9zY0OVmY43QJ45-59" value="&lt;font style=&quot;font-size: 10px;&quot;&gt;nombre producto&lt;/font&gt;" style="text;html=1;align=center;verticalAlign=middle;whiteSpace=wrap;rounded=0;" vertex="1" parent="1">
          <mxGeometry x="190" y="460" width="100" height="30" as="geometry" />
        </mxCell>
        <mxCell id="H-XPeI9zY0OVmY43QJ45-60" value="&lt;font style=&quot;font-size: 9px;&quot;&gt;precio&lt;/font&gt;" style="text;html=1;align=center;verticalAlign=middle;whiteSpace=wrap;rounded=0;" vertex="1" parent="1">
          <mxGeometry x="280" y="500" width="40" height="20" as="geometry" />
        </mxCell>
        <mxCell id="H-XPeI9zY0OVmY43QJ45-61" value="" style="whiteSpace=wrap;html=1;aspect=fixed;" vertex="1" parent="1">
          <mxGeometry x="345" y="390" width="130" height="130" as="geometry" />
        </mxCell>
        <mxCell id="H-XPeI9zY0OVmY43QJ45-62" value="" style="rounded=0;whiteSpace=wrap;html=1;" vertex="1" parent="1">
          <mxGeometry x="360" y="400" width="100" height="60" as="geometry" />
        </mxCell>
        <mxCell id="H-XPeI9zY0OVmY43QJ45-63" value="&lt;font style=&quot;font-size: 10px;&quot;&gt;nombre producto&lt;/font&gt;" style="text;html=1;align=center;verticalAlign=middle;whiteSpace=wrap;rounded=0;" vertex="1" parent="1">
          <mxGeometry x="345" y="460" width="100" height="30" as="geometry" />
        </mxCell>
        <mxCell id="H-XPeI9zY0OVmY43QJ45-64" value="&lt;font style=&quot;font-size: 9px;&quot;&gt;precio&lt;/font&gt;" style="text;html=1;align=center;verticalAlign=middle;whiteSpace=wrap;rounded=0;" vertex="1" parent="1">
          <mxGeometry x="435" y="500" width="40" height="20" as="geometry" />
        </mxCell>
        <mxCell id="H-XPeI9zY0OVmY43QJ45-65" value="" style="whiteSpace=wrap;html=1;aspect=fixed;" vertex="1" parent="1">
          <mxGeometry x="510" y="390" width="130" height="130" as="geometry" />
        </mxCell>
        <mxCell id="H-XPeI9zY0OVmY43QJ45-66" value="" style="rounded=0;whiteSpace=wrap;html=1;" vertex="1" parent="1">
          <mxGeometry x="525" y="400" width="100" height="60" as="geometry" />
        </mxCell>
        <mxCell id="H-XPeI9zY0OVmY43QJ45-67" value="&lt;font style=&quot;font-size: 10px;&quot;&gt;nombre producto&lt;/font&gt;" style="text;html=1;align=center;verticalAlign=middle;whiteSpace=wrap;rounded=0;" vertex="1" parent="1">
          <mxGeometry x="510" y="460" width="100" height="30" as="geometry" />
        </mxCell>
        <mxCell id="H-XPeI9zY0OVmY43QJ45-68" value="&lt;font style=&quot;font-size: 9px;&quot;&gt;precio&lt;/font&gt;" style="text;html=1;align=center;verticalAlign=middle;whiteSpace=wrap;rounded=0;" vertex="1" parent="1">
          <mxGeometry x="600" y="500" width="40" height="20" as="geometry" />
        </mxCell>
        <mxCell id="H-XPeI9zY0OVmY43QJ45-77" value="" style="whiteSpace=wrap;html=1;aspect=fixed;" vertex="1" parent="1">
          <mxGeometry x="660" y="390" width="130" height="130" as="geometry" />
        </mxCell>
        <mxCell id="H-XPeI9zY0OVmY43QJ45-78" value="" style="rounded=0;whiteSpace=wrap;html=1;" vertex="1" parent="1">
          <mxGeometry x="675" y="400" width="100" height="60" as="geometry" />
        </mxCell>
        <mxCell id="H-XPeI9zY0OVmY43QJ45-79" value="&lt;font style=&quot;font-size: 10px;&quot;&gt;nombre producto&lt;/font&gt;" style="text;html=1;align=center;verticalAlign=middle;whiteSpace=wrap;rounded=0;" vertex="1" parent="1">
          <mxGeometry x="660" y="460" width="100" height="30" as="geometry" />
        </mxCell>
        <mxCell id="H-XPeI9zY0OVmY43QJ45-80" value="&lt;font style=&quot;font-size: 9px;&quot;&gt;precio&lt;/font&gt;" style="text;html=1;align=center;verticalAlign=middle;whiteSpace=wrap;rounded=0;" vertex="1" parent="1">
          <mxGeometry x="750" y="500" width="40" height="20" as="geometry" />
        </mxCell>
        <mxCell id="H-XPeI9zY0OVmY43QJ45-87" value="vista home sin login&amp;nbsp;" style="text;html=1;align=center;verticalAlign=middle;whiteSpace=wrap;rounded=0;" vertex="1" parent="1">
          <mxGeometry x="10" width="130" height="30" as="geometry" />
        </mxCell>
        <mxCell id="H-XPeI9zY0OVmY43QJ45-92" value="" style="rounded=0;whiteSpace=wrap;html=1;" vertex="1" parent="1">
          <mxGeometry x="8" y="600" width="810" height="60" as="geometry" />
        </mxCell>
        <mxCell id="H-XPeI9zY0OVmY43QJ45-95" value="" style="rounded=1;whiteSpace=wrap;html=1;" vertex="1" parent="1">
          <mxGeometry x="259" y="1210" width="300" height="40" as="geometry" />
        </mxCell>
        <mxCell id="H-XPeI9zY0OVmY43QJ45-97" value="Perfil" style="text;html=1;align=center;verticalAlign=middle;whiteSpace=wrap;rounded=0;" vertex="1" parent="1">
          <mxGeometry x="740" y="620" width="60" height="30" as="geometry" />
        </mxCell>
        <mxCell id="H-XPeI9zY0OVmY43QJ45-98" value="Carrito" style="text;html=1;align=center;verticalAlign=middle;whiteSpace=wrap;rounded=0;" vertex="1" parent="1">
          <mxGeometry x="680" y="620" width="60" height="30" as="geometry" />
        </mxCell>
        <mxCell id="H-XPeI9zY0OVmY43QJ45-99" value="Favoritos" style="text;html=1;align=center;verticalAlign=middle;whiteSpace=wrap;rounded=0;" vertex="1" parent="1">
          <mxGeometry x="615" y="620" width="60" height="30" as="geometry" />
        </mxCell>
        <mxCell id="H-XPeI9zY0OVmY43QJ45-100" value="" style="ellipse;whiteSpace=wrap;html=1;aspect=fixed;" vertex="1" parent="1">
          <mxGeometry x="30" y="45" width="50" height="50" as="geometry" />
        </mxCell>
        <mxCell id="H-XPeI9zY0OVmY43QJ45-101" value="" style="ellipse;whiteSpace=wrap;html=1;aspect=fixed;" vertex="1" parent="1">
          <mxGeometry x="30" y="605" width="50" height="50" as="geometry" />
        </mxCell>
        <mxCell id="H-XPeI9zY0OVmY43QJ45-103" value="zapatillas" style="text;html=1;align=center;verticalAlign=middle;whiteSpace=wrap;rounded=0;" vertex="1" parent="1">
          <mxGeometry x="606" y="670" width="60" height="30" as="geometry" />
        </mxCell>
        <mxCell id="H-XPeI9zY0OVmY43QJ45-104" value="" style="rounded=0;whiteSpace=wrap;html=1;" vertex="1" parent="1">
          <mxGeometry x="581" y="670" width="110" height="30" as="geometry" />
        </mxCell>
        <mxCell id="H-XPeI9zY0OVmY43QJ45-105" value="niños" style="text;html=1;align=center;verticalAlign=middle;whiteSpace=wrap;rounded=0;" vertex="1" parent="1">
          <mxGeometry x="496" y="670" width="60" height="30" as="geometry" />
        </mxCell>
        <mxCell id="H-XPeI9zY0OVmY43QJ45-106" value="" style="rounded=0;whiteSpace=wrap;html=1;" vertex="1" parent="1">
          <mxGeometry x="471" y="670" width="110" height="30" as="geometry" />
        </mxCell>
        <mxCell id="H-XPeI9zY0OVmY43QJ45-107" value="mujer" style="text;html=1;align=center;verticalAlign=middle;whiteSpace=wrap;rounded=0;" vertex="1" parent="1">
          <mxGeometry x="386" y="670" width="60" height="30" as="geometry" />
        </mxCell>
        <mxCell id="H-XPeI9zY0OVmY43QJ45-108" value="" style="rounded=0;whiteSpace=wrap;html=1;" vertex="1" parent="1">
          <mxGeometry x="361" y="670" width="110" height="30" as="geometry" />
        </mxCell>
        <mxCell id="H-XPeI9zY0OVmY43QJ45-109" value="Hombres" style="text;html=1;align=center;verticalAlign=middle;whiteSpace=wrap;rounded=0;" vertex="1" parent="1">
          <mxGeometry x="276" y="670" width="60" height="30" as="geometry" />
        </mxCell>
        <mxCell id="H-XPeI9zY0OVmY43QJ45-110" value="" style="rounded=0;whiteSpace=wrap;html=1;" vertex="1" parent="1">
          <mxGeometry x="251" y="670" width="110" height="30" as="geometry" />
        </mxCell>
        <mxCell id="H-XPeI9zY0OVmY43QJ45-111" value="" style="rounded=0;whiteSpace=wrap;html=1;" vertex="1" parent="1">
          <mxGeometry x="141" y="670" width="110" height="30" as="geometry" />
        </mxCell>
        <mxCell id="H-XPeI9zY0OVmY43QJ45-112" value="categoria" style="text;html=1;align=center;verticalAlign=middle;whiteSpace=wrap;rounded=0;" vertex="1" parent="1">
          <mxGeometry x="166" y="670" width="60" height="30" as="geometry" />
        </mxCell>
        <mxCell id="H-XPeI9zY0OVmY43QJ45-113" value="Hombres" style="text;html=1;align=center;verticalAlign=middle;whiteSpace=wrap;rounded=0;" vertex="1" parent="1">
          <mxGeometry x="276" y="670" width="60" height="30" as="geometry" />
        </mxCell>
        <mxCell id="H-XPeI9zY0OVmY43QJ45-114" value="mujer" style="text;html=1;align=center;verticalAlign=middle;whiteSpace=wrap;rounded=0;" vertex="1" parent="1">
          <mxGeometry x="383" y="670" width="60" height="30" as="geometry" />
        </mxCell>
        <mxCell id="H-XPeI9zY0OVmY43QJ45-115" value="niños" style="text;html=1;align=center;verticalAlign=middle;whiteSpace=wrap;rounded=0;" vertex="1" parent="1">
          <mxGeometry x="496" y="670" width="60" height="30" as="geometry" />
        </mxCell>
        <mxCell id="H-XPeI9zY0OVmY43QJ45-116" value="zapatillas" style="text;html=1;align=center;verticalAlign=middle;whiteSpace=wrap;rounded=0;" vertex="1" parent="1">
          <mxGeometry x="606" y="670" width="60" height="30" as="geometry" />
        </mxCell>
        <mxCell id="H-XPeI9zY0OVmY43QJ45-117" value="" style="rounded=0;whiteSpace=wrap;html=1;" vertex="1" parent="1">
          <mxGeometry x="30" y="720" width="370" height="250" as="geometry" />
        </mxCell>
        <mxCell id="H-XPeI9zY0OVmY43QJ45-118" value="" style="rounded=0;whiteSpace=wrap;html=1;" vertex="1" parent="1">
          <mxGeometry x="430" y="720" width="370" height="250" as="geometry" />
        </mxCell>
        <mxCell id="H-XPeI9zY0OVmY43QJ45-119" value="CARRUSEL MAS VENDIDO" style="text;html=1;align=center;verticalAlign=middle;whiteSpace=wrap;rounded=0;" vertex="1" parent="1">
          <mxGeometry x="175" y="810" width="85" height="30" as="geometry" />
        </mxCell>
        <mxCell id="H-XPeI9zY0OVmY43QJ45-120" value="CARRUSEL OFERTAS" style="text;html=1;align=center;verticalAlign=middle;whiteSpace=wrap;rounded=0;" vertex="1" parent="1">
          <mxGeometry x="590" y="810" width="60" height="30" as="geometry" />
        </mxCell>
        <mxCell id="H-XPeI9zY0OVmY43QJ45-121" value="Categoria 1" style="text;html=1;align=center;verticalAlign=middle;whiteSpace=wrap;rounded=0;" vertex="1" parent="1">
          <mxGeometry x="30" y="990" width="70" height="30" as="geometry" />
        </mxCell>
        <mxCell id="H-XPeI9zY0OVmY43QJ45-122" value="" style="whiteSpace=wrap;html=1;aspect=fixed;" vertex="1" parent="1">
          <mxGeometry x="30" y="1020" width="130" height="130" as="geometry" />
        </mxCell>
        <mxCell id="H-XPeI9zY0OVmY43QJ45-123" value="" style="rounded=0;whiteSpace=wrap;html=1;" vertex="1" parent="1">
          <mxGeometry x="45" y="1030" width="100" height="60" as="geometry" />
        </mxCell>
        <mxCell id="H-XPeI9zY0OVmY43QJ45-124" value="&lt;font style=&quot;font-size: 10px;&quot;&gt;nombre producto&lt;/font&gt;" style="text;html=1;align=center;verticalAlign=middle;whiteSpace=wrap;rounded=0;" vertex="1" parent="1">
          <mxGeometry x="30" y="1090" width="100" height="30" as="geometry" />
        </mxCell>
        <mxCell id="H-XPeI9zY0OVmY43QJ45-125" value="&lt;font style=&quot;font-size: 9px;&quot;&gt;precio&lt;/font&gt;" style="text;html=1;align=center;verticalAlign=middle;whiteSpace=wrap;rounded=0;" vertex="1" parent="1">
          <mxGeometry x="120" y="1130" width="40" height="20" as="geometry" />
        </mxCell>
        <mxCell id="H-XPeI9zY0OVmY43QJ45-126" value="" style="whiteSpace=wrap;html=1;aspect=fixed;" vertex="1" parent="1">
          <mxGeometry x="185" y="1020" width="130" height="130" as="geometry" />
        </mxCell>
        <mxCell id="H-XPeI9zY0OVmY43QJ45-127" value="" style="rounded=0;whiteSpace=wrap;html=1;" vertex="1" parent="1">
          <mxGeometry x="200" y="1030" width="100" height="60" as="geometry" />
        </mxCell>
        <mxCell id="H-XPeI9zY0OVmY43QJ45-128" value="&lt;font style=&quot;font-size: 10px;&quot;&gt;nombre producto&lt;/font&gt;" style="text;html=1;align=center;verticalAlign=middle;whiteSpace=wrap;rounded=0;" vertex="1" parent="1">
          <mxGeometry x="185" y="1090" width="100" height="30" as="geometry" />
        </mxCell>
        <mxCell id="H-XPeI9zY0OVmY43QJ45-129" value="&lt;font style=&quot;font-size: 9px;&quot;&gt;precio&lt;/font&gt;" style="text;html=1;align=center;verticalAlign=middle;whiteSpace=wrap;rounded=0;" vertex="1" parent="1">
          <mxGeometry x="275" y="1130" width="40" height="20" as="geometry" />
        </mxCell>
        <mxCell id="H-XPeI9zY0OVmY43QJ45-130" value="" style="whiteSpace=wrap;html=1;aspect=fixed;" vertex="1" parent="1">
          <mxGeometry x="341" y="1020" width="130" height="130" as="geometry" />
        </mxCell>
        <mxCell id="H-XPeI9zY0OVmY43QJ45-131" value="" style="rounded=0;whiteSpace=wrap;html=1;" vertex="1" parent="1">
          <mxGeometry x="356" y="1030" width="100" height="60" as="geometry" />
        </mxCell>
        <mxCell id="H-XPeI9zY0OVmY43QJ45-132" value="&lt;font style=&quot;font-size: 10px;&quot;&gt;nombre producto&lt;/font&gt;" style="text;html=1;align=center;verticalAlign=middle;whiteSpace=wrap;rounded=0;" vertex="1" parent="1">
          <mxGeometry x="341" y="1090" width="100" height="30" as="geometry" />
        </mxCell>
        <mxCell id="H-XPeI9zY0OVmY43QJ45-133" value="&lt;font style=&quot;font-size: 9px;&quot;&gt;precio&lt;/font&gt;" style="text;html=1;align=center;verticalAlign=middle;whiteSpace=wrap;rounded=0;" vertex="1" parent="1">
          <mxGeometry x="431" y="1130" width="40" height="20" as="geometry" />
        </mxCell>
        <mxCell id="H-XPeI9zY0OVmY43QJ45-134" value="" style="whiteSpace=wrap;html=1;aspect=fixed;" vertex="1" parent="1">
          <mxGeometry x="495" y="1020" width="130" height="130" as="geometry" />
        </mxCell>
        <mxCell id="H-XPeI9zY0OVmY43QJ45-135" value="" style="rounded=0;whiteSpace=wrap;html=1;" vertex="1" parent="1">
          <mxGeometry x="510" y="1030" width="100" height="60" as="geometry" />
        </mxCell>
        <mxCell id="H-XPeI9zY0OVmY43QJ45-136" value="&lt;font style=&quot;font-size: 10px;&quot;&gt;nombre producto&lt;/font&gt;" style="text;html=1;align=center;verticalAlign=middle;whiteSpace=wrap;rounded=0;" vertex="1" parent="1">
          <mxGeometry x="495" y="1090" width="100" height="30" as="geometry" />
        </mxCell>
        <mxCell id="H-XPeI9zY0OVmY43QJ45-137" value="&lt;font style=&quot;font-size: 9px;&quot;&gt;precio&lt;/font&gt;" style="text;html=1;align=center;verticalAlign=middle;whiteSpace=wrap;rounded=0;" vertex="1" parent="1">
          <mxGeometry x="585" y="1130" width="40" height="20" as="geometry" />
        </mxCell>
        <mxCell id="H-XPeI9zY0OVmY43QJ45-138" value="" style="whiteSpace=wrap;html=1;aspect=fixed;" vertex="1" parent="1">
          <mxGeometry x="660" y="1020" width="130" height="130" as="geometry" />
        </mxCell>
        <mxCell id="H-XPeI9zY0OVmY43QJ45-139" value="" style="rounded=0;whiteSpace=wrap;html=1;" vertex="1" parent="1">
          <mxGeometry x="675" y="1030" width="100" height="60" as="geometry" />
        </mxCell>
        <mxCell id="H-XPeI9zY0OVmY43QJ45-140" value="&lt;font style=&quot;font-size: 10px;&quot;&gt;nombre producto&lt;/font&gt;" style="text;html=1;align=center;verticalAlign=middle;whiteSpace=wrap;rounded=0;" vertex="1" parent="1">
          <mxGeometry x="660" y="1090" width="100" height="30" as="geometry" />
        </mxCell>
        <mxCell id="H-XPeI9zY0OVmY43QJ45-141" value="&lt;font style=&quot;font-size: 9px;&quot;&gt;precio&lt;/font&gt;" style="text;html=1;align=center;verticalAlign=middle;whiteSpace=wrap;rounded=0;" vertex="1" parent="1">
          <mxGeometry x="750" y="1130" width="40" height="20" as="geometry" />
        </mxCell>
        <mxCell id="H-XPeI9zY0OVmY43QJ45-154" value="vista home logeado" style="text;html=1;align=center;verticalAlign=middle;whiteSpace=wrap;rounded=0;" vertex="1" parent="1">
          <mxGeometry x="8" y="570" width="112" height="30" as="geometry" />
        </mxCell>
        <mxCell id="H-XPeI9zY0OVmY43QJ45-155" value="" style="rounded=0;whiteSpace=wrap;html=1;" vertex="1" parent="1">
          <mxGeometry x="4" y="1200" width="812" height="560" as="geometry" />
        </mxCell>
        <mxCell id="H-XPeI9zY0OVmY43QJ45-156" value="" style="rounded=0;whiteSpace=wrap;html=1;" vertex="1" parent="1">
          <mxGeometry x="4" y="1200" width="810" height="60" as="geometry" />
        </mxCell>
        <mxCell id="H-XPeI9zY0OVmY43QJ45-159" value="" style="ellipse;whiteSpace=wrap;html=1;aspect=fixed;" vertex="1" parent="1">
          <mxGeometry x="20" y="1205" width="50" height="50" as="geometry" />
        </mxCell>
        <mxCell id="H-XPeI9zY0OVmY43QJ45-160" value="Favoritos" style="text;html=1;align=center;verticalAlign=middle;whiteSpace=wrap;rounded=0;" vertex="1" parent="1">
          <mxGeometry x="605" y="1220" width="60" height="30" as="geometry" />
        </mxCell>
        <mxCell id="H-XPeI9zY0OVmY43QJ45-161" value="Carrito" style="text;html=1;align=center;verticalAlign=middle;whiteSpace=wrap;rounded=0;" vertex="1" parent="1">
          <mxGeometry x="670" y="1220" width="60" height="30" as="geometry" />
        </mxCell>
        <mxCell id="H-XPeI9zY0OVmY43QJ45-162" value="Perfil" style="text;html=1;align=center;verticalAlign=middle;whiteSpace=wrap;rounded=0;" vertex="1" parent="1">
          <mxGeometry x="730" y="1220" width="60" height="30" as="geometry" />
        </mxCell>
        <mxCell id="H-XPeI9zY0OVmY43QJ45-163" value="" style="rounded=1;whiteSpace=wrap;html=1;" vertex="1" parent="1">
          <mxGeometry x="245" y="610" width="300" height="40" as="geometry" />
        </mxCell>
        <mxCell id="H-XPeI9zY0OVmY43QJ45-164" value="busqueda" style="text;html=1;align=center;verticalAlign=middle;whiteSpace=wrap;rounded=0;" vertex="1" parent="1">
          <mxGeometry x="365" y="615" width="60" height="30" as="geometry" />
        </mxCell>
        <mxCell id="H-XPeI9zY0OVmY43QJ45-165" value="" style="rounded=1;whiteSpace=wrap;html=1;" vertex="1" parent="1">
          <mxGeometry x="259" y="1210" width="300" height="40" as="geometry" />
        </mxCell>
        <mxCell id="H-XPeI9zY0OVmY43QJ45-166" value="busqueda" style="text;html=1;align=center;verticalAlign=middle;whiteSpace=wrap;rounded=0;" vertex="1" parent="1">
          <mxGeometry x="379" y="1215" width="60" height="30" as="geometry" />
        </mxCell>
        <mxCell id="H-XPeI9zY0OVmY43QJ45-168" value="" style="rounded=0;whiteSpace=wrap;html=1;" vertex="1" parent="1">
          <mxGeometry x="24" y="1350" width="235" height="310" as="geometry" />
        </mxCell>
        <mxCell id="H-XPeI9zY0OVmY43QJ45-169" value="" style="rounded=0;whiteSpace=wrap;html=1;" vertex="1" parent="1">
          <mxGeometry x="284.25" y="1350" width="243.5" height="310" as="geometry" />
        </mxCell>
        <mxCell id="H-XPeI9zY0OVmY43QJ45-170" value="" style="rounded=0;whiteSpace=wrap;html=1;" vertex="1" parent="1">
          <mxGeometry x="555" y="1350" width="245" height="310" as="geometry" />
        </mxCell>
        <mxCell id="H-XPeI9zY0OVmY43QJ45-171" value="" style="rounded=1;whiteSpace=wrap;html=1;" vertex="1" parent="1">
          <mxGeometry x="15" y="1290" width="775" height="40" as="geometry" />
        </mxCell>
        <mxCell id="H-XPeI9zY0OVmY43QJ45-172" value="CATEGORIA" style="text;html=1;align=center;verticalAlign=middle;whiteSpace=wrap;rounded=0;" vertex="1" parent="1">
          <mxGeometry x="20" y="1295" width="100" height="30" as="geometry" />
        </mxCell>
      </root>
    </mxGraphModel>
  </diagram>
</mxfile>
